<svg xmlns="http://www.w3.org/2000/svg" width="11.916" height="12" viewBox="0 0 11.916 12">
  <g transform="translate(759.664 -743.081)">
    <path d="M-748.447,744.2h-.559a1.819,1.819,0,0,0-1.679-1.119h0a1.819,1.819,0,0,0-1.679,1.119h-6.6a.7.7,0,0,0-.7.7h0a.7.7,0,0,0,.7.7h6.6a1.819,1.819,0,0,0,1.679,1.119h0a1.819,1.819,0,0,0,1.679-1.119h.559a.7.7,0,0,0,.7-.7h0A.7.7,0,0,0-748.447,744.2Z" transform="translate(0 0)" />
    <path d="M-748.447,779.718h-5.4a1.819,1.819,0,0,0-1.679-1.119h0a1.819,1.819,0,0,0-1.679,1.119h-1.762a.7.7,0,0,0-.7.7h0a.7.7,0,0,0,.7.7h1.762a1.819,1.819,0,0,0,1.679,1.119h0a1.819,1.819,0,0,0,1.679-1.119h5.4a.7.7,0,0,0,.7-.7h0A.7.7,0,0,0-748.447,779.718Z" transform="translate(0 -31.329)" />
    <path d="M-748.447,815.117h-1.762A1.819,1.819,0,0,0-751.888,814h0a1.819,1.819,0,0,0-1.679,1.119h-5.4a.7.7,0,0,0-.7.7h0a.7.7,0,0,0,.7.7h5.4a1.819,1.819,0,0,0,1.679,1.119h0a1.818,1.818,0,0,0,1.679-1.119h1.762a.7.7,0,0,0,.7-.7h0A.7.7,0,0,0-748.447,815.117Z" transform="translate(0 -62.553)" />
  </g>
</svg>
