<svg xmlns="http://www.w3.org/2000/svg" width="9.998" height="10" viewBox="0 0 9.998 10">
  <g id="link" transform="translate(-0.039 0)">
    <g id="Group_4" transform="translate(0.039 3.215)">
      <g id="Group_3" transform="translate(0)">
        <path id="Path_7" d="M6.14,165.3a2.269,2.269,0,0,0-.392-.315,2.333,2.333,0,0,0-2.908.315l-2.12,2.121a2.333,2.333,0,0,0,3.3,3.3l1.75-1.75a.167.167,0,0,0-.118-.285H5.583a2.8,2.8,0,0,1-1.066-.207.167.167,0,0,0-.182.037l-1.258,1.26a1,1,0,0,1-1.415-1.415l2.128-2.126a1,1,0,0,1,1.413,0,.683.683,0,0,0,.936,0,.66.66,0,0,0,0-.936Z" transform="translate(-0.039 -164.614)"/>
      </g>
    </g>
    <g id="Group_6" transform="translate(3.739 0)">
      <g id="Group_5" transform="translate(0 0)">
        <path id="Path_8" d="M195.117.684a2.333,2.333,0,0,0-3.3,0L190.069,2.43a.167.167,0,0,0,.122.285h.062a2.8,2.8,0,0,1,1.065.208.167.167,0,0,0,.182-.037l1.255-1.253a1,1,0,0,1,1.415,1.415L192.606,4.61l-.013.015-.547.543a1,1,0,0,1-1.413,0,.683.683,0,0,0-.936,0,.664.664,0,0,0,0,.94,2.313,2.313,0,0,0,.667.467c.035.017.07.03.1.045s.072.027.107.04.072.025.107.035l.1.027c.067.017.133.03.2.042a2.319,2.319,0,0,0,.248.023h.127l.1-.012c.037,0,.075-.01.118-.01h.057l.115-.017.053-.01.1-.02h.018A2.333,2.333,0,0,0,193,6.1l2.121-2.121A2.333,2.333,0,0,0,195.117.684Z" transform="translate(-189.502 0)"/>
      </g>
    </g>
  </g>
</svg>
