<svg xmlns="http://www.w3.org/2000/svg" width="13.199" height="14" viewBox="0 0 13.199 14">
  <path d="M7.072,3.806V3.4A1.4,1.4,0,0,1,8.472,2h1.4a1.4,1.4,0,0,1,1.4,1.4v.406a5.6,5.6,0,0,1,1.344.777l.35-.2a1.4,1.4,0,0,1,1.918.511l.7,1.218a1.4,1.4,0,0,1-.511,1.911l-.35.2a5.642,5.642,0,0,1,0,1.554l.35.21a1.4,1.4,0,0,1,.511,1.9l-.7,1.218a1.4,1.4,0,0,1-1.911.511l-.35-.21a5.6,5.6,0,0,1-1.351.791v.4a1.4,1.4,0,0,1-1.4,1.4h-1.4a1.4,1.4,0,0,1-1.4-1.4v-.406a5.6,5.6,0,0,1-1.344-.777l-.35.2a1.4,1.4,0,0,1-1.918-.511l-.7-1.218A1.4,1.4,0,0,1,3.271,9.98l.35-.2a5.642,5.642,0,0,1,0-1.554l-.35-.21a1.4,1.4,0,0,1-.511-1.9l.7-1.218A1.4,1.4,0,0,1,5.371,4.38l.35.21A5.6,5.6,0,0,1,7.072,3.8ZM6.288,5.948l-.378.357L4.671,5.591l-.7,1.218L5.2,7.516l-.119.511a4.214,4.214,0,0,0,0,1.946l.119.511-1.232.707.7,1.218L5.91,11.7l.378.357a4.2,4.2,0,0,0,1.68.98l.5.14V14.6h1.4V13.172l.5-.14a4.2,4.2,0,0,0,1.687-.98l.378-.357,1.239.714.7-1.218-1.232-.707.119-.511a4.214,4.214,0,0,0,0-1.946l-.119-.511,1.232-.707-.7-1.218-1.239.714-.378-.357a4.2,4.2,0,0,0-1.68-.98l-.5-.14V3.4h-1.4V4.828l-.5.14a4.2,4.2,0,0,0-1.687.98ZM9.172,11.8a2.8,2.8,0,1,1,2.8-2.8A2.8,2.8,0,0,1,9.172,11.8Zm0-1.4A1.4,1.4,0,1,0,7.772,9,1.4,1.4,0,0,0,9.172,10.4Z" transform="translate(-2.572 -2)"/>
</svg>
