<svg xmlns="http://www.w3.org/2000/svg" width="15.085" height="16" viewBox="0 0 15.085 16">
  <path id="icon-cog" d="M7.714,4.064V3.6A1.6,1.6,0,0,1,9.314,2h1.6a1.6,1.6,0,0,1,1.6,1.6v.464a6.4,6.4,0,0,1,1.536.888l.4-.232a1.6,1.6,0,0,1,2.192.584l.8,1.392a1.6,1.6,0,0,1-.584,2.184l-.4.232a6.448,6.448,0,0,1,0,1.776l.4.24a1.6,1.6,0,0,1,.584,2.176l-.8,1.392a1.6,1.6,0,0,1-2.184.584l-.4-.24a6.4,6.4,0,0,1-1.544.9V16.4a1.6,1.6,0,0,1-1.6,1.6h-1.6a1.6,1.6,0,0,1-1.6-1.6v-.464a6.4,6.4,0,0,1-1.536-.888l-.4.232A1.6,1.6,0,0,1,3.586,14.7l-.8-1.392A1.6,1.6,0,0,1,3.37,11.12l.4-.232a6.448,6.448,0,0,1,0-1.776l-.4-.24A1.6,1.6,0,0,1,2.786,6.7l.8-1.392A1.6,1.6,0,0,1,5.77,4.72l.4.24a6.4,6.4,0,0,1,1.544-.9Zm-.9,2.448-.432.408L4.97,6.1,4.17,7.5,5.578,8.3l-.136.584a4.816,4.816,0,0,0,0,2.224l.136.584L4.17,12.5l.8,1.392,1.416-.816.432.408a4.8,4.8,0,0,0,1.92,1.12l.576.16V16.4h1.6V14.768l.568-.16a4.8,4.8,0,0,0,1.928-1.12l.432-.408,1.416.816.8-1.392L14.65,11.7l.136-.584a4.816,4.816,0,0,0,0-2.224L14.65,8.3,16.058,7.5l-.8-1.392-1.416.816-.432-.408a4.8,4.8,0,0,0-1.92-1.12l-.576-.16V3.6h-1.6V5.232l-.568.16a4.8,4.8,0,0,0-1.928,1.12Zm3.3,6.688a3.2,3.2,0,1,1,3.2-3.2A3.2,3.2,0,0,1,10.114,13.2Zm0-1.6a1.6,1.6,0,1,0-1.6-1.6A1.6,1.6,0,0,0,10.114,11.6Z" transform="translate(-2.572 -2)" fill="#fff"/>
</svg>
