<svg xmlns="http://www.w3.org/2000/svg" width="22.959" height="15.8" viewBox="0 0 22.959 15.8">
  <path id="Path_436" data-name="Path 436" d="M740.81,149.517l-10.662-5.512a.9.9,0,0,0-.808-.009l-10.5,5.143a.9.9,0,0,0,.005,1.618l10.662,5.143a.891.891,0,0,0,.39.09.9.9,0,0,0,.373-.081l4.18-1.9v2.481c-.449.426-1.8,1.415-4.635,1.415s-4.2-1-4.635-1.413v-1.4a.9.9,0,0,0-1.8,0v1.746a.894.894,0,0,0,.17.525c.068.1,1.736,2.343,6.266,2.343s6.2-2.247,6.266-2.343a.9.9,0,0,0,.17-.525v-3.647l1.41-.641-.012,2.5a.9.9,0,0,0,.9.9h0a.9.9,0,0,0,.9-.9l.015-3.328,1.3-.593a.9.9,0,0,0,.04-1.618Zm-10.9,4.579L721.3,149.94l8.429-4.128,8.451,4.369-8.231-1.186a.9.9,0,0,0-.257,1.781l5.713.823-.4.182h0Z" transform="translate(-718.337 -143.904)" fill="#fff"/>
</svg>
