<svg xmlns="http://www.w3.org/2000/svg" width="17.778" height="16" viewBox="0 0 17.778 16">
  <path id="icon-briefcase" d="M7.333,6.556V4.778A1.783,1.783,0,0,1,9.111,3h3.556a1.778,1.778,0,0,1,1.778,1.778V6.556H18a1.778,1.778,0,0,1,1.778,1.778v8.889A1.778,1.778,0,0,1,18,19H3.778A1.778,1.778,0,0,1,2,17.222V8.333A1.783,1.783,0,0,1,3.778,6.556Zm7.111,1.778H7.333v8.889h7.111Zm1.778,0v8.889H18V8.333Zm-10.667,0H3.778v8.889H5.556ZM9.111,6.556h3.556V4.778H9.111Z" transform="translate(-2 -3)" fill="#fff"/>
</svg>
