<svg xmlns="http://www.w3.org/2000/svg" width="12.32" height="14.49" viewBox="0 0 12.32 14.49"><path d="M9.45,12.59a.84.84,0,0,0-1.14-.34A4.48,4.48,0,0,1,1.68,8.32.84.84,0,0,0,0,8.32a6.16,6.16,0,0,0,6.16,6.17,6.24,6.24,0,0,0,3-.76A.85.85,0,0,0,9.45,12.59Z"/><path d="M10.52,4a6.14,6.14,0,0,0-4.36-1.8H4.89l.73-.74a.84.84,0,0,0,0-1.19.85.85,0,0,0-1.19,0L3,1.66A1.94,1.94,0,0,0,3,4.37l1.37,1.4A.84.84,0,0,0,5,6a.84.84,0,0,0,.84-.83.81.81,0,0,0-.24-.6l-.72-.74H6.16a4.48,4.48,0,0,1,3.9,6.68.85.85,0,0,0,.31,1.15.88.88,0,0,0,.42.11.84.84,0,0,0,.73-.42,6.18,6.18,0,0,0-1-7.4Z"/></svg>
