<svg xmlns="http://www.w3.org/2000/svg" width="18" height="18" viewBox="0 0 18 18">
  <g id="Group_649" data-name="Group 649" transform="translate(-745.741 -123.246)">
    <path id="Path_433" data-name="Path 433" d="M752.346,136.7a.858.858,0,0,1-.573-.221l-1.322-1.2a.851.851,0,0,1,1.145-1.258l.689.627L754,132.733a.85.85,0,0,1,1.266,1.136l-2.283,2.544a.857.857,0,0,1-.59.281Z" transform="translate(0 -2)" fill="#9532c7"/>
    <path id="icon-news" d="M760.741,141.246h-11a4,4,0,0,1-4-4v-12a2.006,2.006,0,0,1,2-2h10a2,2,0,0,1,2,2h2a2,2,0,0,1,2,2v11A3,3,0,0,1,760.741,141.246Zm-3-3v-13h-10v12a2.006,2.006,0,0,0,2,2h8.17A3.009,3.009,0,0,1,757.741,138.246Zm2,0a1,1,0,1,0,2,0v-11h-2Z" fill="#9532c7"/>
  </g>
</svg>
