<svg xmlns="http://www.w3.org/2000/svg" width="18" height="18" viewBox="0 0 18 18">
  <g transform="translate(9 -146)">
    <path d="M11,20a9,9,0,1,1,9-9A9,9,0,0,1,11,20ZM5.312,6.59A7.164,7.164,0,0,0,3.854,10.1H4.7a.9.9,0,0,1,0,1.8H3.854a7.155,7.155,0,0,0,1.188,3.15A8.964,8.964,0,0,1,10.1,12.845V8.3a.9.9,0,0,1,1.8,0v4.545a8.964,8.964,0,0,1,5.058,2.2,7.155,7.155,0,0,0,1.188-3.15H17.3a.9.9,0,1,1,0-1.8h.846a7.164,7.164,0,0,0-1.458-3.51l-.594.594a.9.9,0,0,1-1.278-1.278l.6-.594A7.164,7.164,0,0,0,11.9,3.854V4.7a.9.9,0,0,1-1.8,0V3.854A7.112,7.112,0,0,0,6.59,5.312l.594.594A.9.9,0,1,1,5.906,7.184l-.594-.6Zm.927,9.81a7.173,7.173,0,0,0,9.522,0,7.173,7.173,0,0,0-9.522,0Z" transform="translate(-11 144)"/>
  </g>
</svg>
