<svg xmlns="http://www.w3.org/2000/svg" width="32" height="32" viewBox="0 0 32 32">
  <path d="M-4651-120a15.9,15.9,0,0,1-11.313-4.686A15.9,15.9,0,0,1-4667-136a15.894,15.894,0,0,1,4.687-11.313A15.9,15.9,0,0,1-4651-152a15.894,15.894,0,0,1,11.313,4.686A15.894,15.894,0,0,1-4635-136a15.9,15.9,0,0,1-4.686,11.314A15.893,15.893,0,0,1-4651-120Zm-1-21a1.26,1.26,0,0,0-.9.372l-3.73,3.729a1.274,1.274,0,0,0,0,1.8l3.73,3.729a1.262,1.262,0,0,0,.9.372,1.259,1.259,0,0,0,.9-.372,1.26,1.26,0,0,0,.373-.9,1.261,1.261,0,0,0-.373-.9l-1.464-1.464h7.111a1.272,1.272,0,0,0,1.271-1.271,1.271,1.271,0,0,0-1.271-1.27h-7.307l1.66-1.66a1.263,1.263,0,0,0,.373-.9,1.261,1.261,0,0,0-.373-.9A1.258,1.258,0,0,0-4652-141Z" transform="translate(4667 151.999)" />
</svg>
