<svg xmlns="http://www.w3.org/2000/svg" width="32" height="32" viewBox="0 0 32 32">
  <path d="M-1711-120a15.9,15.9,0,0,1-11.314-4.687A15.9,15.9,0,0,1-1727-136a15.9,15.9,0,0,1,4.687-11.314A15.9,15.9,0,0,1-1711-152a15.9,15.9,0,0,1,11.314,4.686A15.9,15.9,0,0,1-1695-136a15.9,15.9,0,0,1-4.686,11.314A15.9,15.9,0,0,1-1711-120Zm-3-21a1,1,0,0,0-1,1v8a1,1,0,0,0,1,1h6a1,1,0,0,0,1-1v-6.5a.5.5,0,0,0-.149-.35l-2-2a.5.5,0,0,0-.349-.15Zm6,9h-6v-8h3.5v1.5a1,1,0,0,0,1,1h1.5v5.5Zm-4.5-2.5a.5.5,0,0,0-.5.5.5.5,0,0,0,.5.5h3a.5.5,0,0,0,.5-.5.5.5,0,0,0-.5-.5Zm0-2a.5.5,0,0,0-.5.5.5.5,0,0,0,.5.5h3a.5.5,0,0,0,.5-.5.5.5,0,0,0-.5-.5Zm0-2a.5.5,0,0,0-.5.5.5.5,0,0,0,.5.5h.5a.5.5,0,0,0,.5-.5.5.5,0,0,0-.5-.5Zm4.3,0h-1.3v-1.3l1.293,1.293Z" transform="translate(1727 152)"/>
</svg>
