<svg xmlns="http://www.w3.org/2000/svg" width="840.192" height="276.096" viewBox="0 0 840.192 276.096">
  <path data-name="Path 281" d="M191.616,0H257.28V-269.568H191.616v105.6H89.472v-105.6H23.808V0H89.472V-110.976H191.616Zm255.36-182.016c0,21.12-11.52,33.792-36.1,33.792h-40.7V-215.04h40.7C435.456-215.04,446.976-201.984,446.976-182.016ZM304.512-269.568V0h65.664V-101.76H385.92L441.984,0H516.1L453.888-106.752c41.472-12.288,59.9-44.16,59.9-77.952,0-46.848-33.024-84.864-99.072-84.864ZM554.88,0h65.664V-269.568H554.88ZM864-80.256c0-90.24-133.248-69.12-133.248-115.968,0-16.9,11.9-24.96,27.648-24.576,17.664.384,29.952,10.752,31.1,28.032h71.04c-2.688-51.456-42.24-80.64-100.992-80.64-56.448,0-98.3,28.416-98.3,79.488C660.48-98.3,795.264-125.184,795.264-75.264c0,15.744-12.288,25.344-31.488,25.344-18.432,0-31.488-9.984-33.408-30.72H660.48C662.4-26.112,707.712,2.688,765.7,2.688,828.672,2.688,864-34.944,864-80.256Z" transform="translate(-23.808 273.408)"/>
</svg>
