<svg xmlns="http://www.w3.org/2000/svg" width="125.128" height="39.707" viewBox="0 0 125.128 39.707">
  <path id="lig-inc" d="M233.14,798.266H212.681V770.114a1.119,1.119,0,0,0-1.113-1.124h-7.579a1.023,1.023,0,0,0-.992,1.122v35.394a1.118,1.118,0,0,0,1.113,1.124h29.03a1.119,1.119,0,0,0,1.113-1.124v-6.24a1.023,1.023,0,0,0-1.113-1Zm32.472-23.658h-7.459a1.118,1.118,0,0,0-1.112,1.124v29.775a1.118,1.118,0,0,0,1.112,1.123h7.459a1.118,1.118,0,0,0,1.113-1.123V775.732a1.119,1.119,0,0,0-1.113-1.124ZM311.9,776.6a15.886,15.886,0,0,1,10.218,3.887,1.063,1.063,0,0,0,.7.271.722.722,0,0,0,.706-.263l4.323-5.3a1.216,1.216,0,0,0,.263-.879,1.186,1.186,0,0,0-.417-.806A25.377,25.377,0,0,0,311.9,768a23.24,23.24,0,0,0-15.565,5.622,18.787,18.787,0,0,0-6.393,14.175,19.1,19.1,0,0,0,6.264,14.217,22.4,22.4,0,0,0,15.253,5.686,29.114,29.114,0,0,0,15.9-4.989,1.191,1.191,0,0,0,.486-.97V790.7a.942.942,0,0,0-.982-1.05h-6.817c-.609,0-.861.524-.861,1.17v6.343a17.028,17.028,0,0,1-7.228,1.877c-6.868,0-12.248-4.942-12.248-11.249,0-6.278,5.356-11.195,12.193-11.195Z" transform="translate(-202.992 -767.994)"/>
</svg>
